<svg width="520" height="280" viewBox="0 0 520 280" fill="none" xmlns="http://www.w3.org/2000/svg">
  <defs>
    <linearGradient id="stage" x1="260" y1="54" x2="260" y2="226" gradientUnits="userSpaceOnUse">
      <stop stop-color="#FFFFFF" stop-opacity="0.08"/>
      <stop offset="1" stop-color="#FFFFFF" stop-opacity="0.02"/>
    </linearGradient>
    <linearGradient id="module" x1="127" y1="88" x2="127" y2="192" gradientUnits="userSpaceOnUse">
      <stop stop-color="#FFFFFF" stop-opacity="0.12"/>
      <stop offset="1" stop-color="#FFFFFF" stop-opacity="0.03"/>
    </linearGradient>
    <linearGradient id="moduleRight" x1="393" y1="88" x2="393" y2="192" gradientUnits="userSpaceOnUse">
      <stop stop-color="#FFFFFF" stop-opacity="0.12"/>
      <stop offset="1" stop-color="#FFFFFF" stop-opacity="0.03"/>
    </linearGradient>
    <radialGradient id="coreGlow" cx="0" cy="0" r="1" gradientUnits="userSpaceOnUse" gradientTransform="translate(260 140) rotate(90) scale(72 96)">
      <stop stop-color="#FFD25D" stop-opacity="0.22"/>
      <stop offset="1" stop-color="#FFD25D" stop-opacity="0"/>
    </radialGradient>
    <path id="hex" d="M0 -10L8.7 -5V5L0 10L-8.7 5V-5Z"/>
    <path id="upperFlow" d="M170 114C214 82 306 82 350 114"/>
    <path id="lowerFlow" d="M170 166C214 198 306 198 350 166"/>
  </defs>

  <rect x="36" y="54" width="448" height="172" fill="url(#stage)" stroke="#FFFFFF" stroke-opacity="0.14"/>
  <path d="M36 86H484" stroke="#FFFFFF" stroke-opacity="0.08"/>
  <path d="M260 54V226" stroke="#FFFFFF" stroke-opacity="0.07"/>
  <path d="M68 70H136" stroke="#FFFFFF" stroke-opacity="0.08"/>
  <path d="M386 210H452" stroke="#FFFFFF" stroke-opacity="0.08"/>
  <path d="M260 70V92" stroke="#FFFFFF" stroke-opacity="0.08"/>
  <ellipse cx="260" cy="140" rx="96" ry="72" fill="url(#coreGlow)"/>

  <path d="M200 92C220 96 232 104 242 114" stroke="#FFFFFF" stroke-opacity="0.06"/>
  <path d="M318 188C330 182 342 174 354 162" stroke="#FFFFFF" stroke-opacity="0.06"/>

  <g>
    <rect x="72" y="88" width="110" height="104" fill="url(#module)" stroke="#FFFFFF" stroke-opacity="0.14"/>
    <path d="M88 104H136" stroke="#E8B400" stroke-opacity="0.82"/>
    <g transform="translate(127 140)">
      <animateTransform attributeName="transform" additive="sum" type="translate" values="0 0; 0 -4; 0 0" dur="6.4s" repeatCount="indefinite"/>
      <use href="#hex" fill="#FFFFFF"/>
      <use href="#hex" transform="translate(-34 -18)" fill="#E9EEFF" fill-opacity="0.88"/>
      <use href="#hex" transform="translate(34 -18)" fill="#E9EEFF" fill-opacity="0.88"/>
      <use href="#hex" transform="translate(-34 18)" fill="#E8B400"/>
      <use href="#hex" transform="translate(34 18)" fill="#E8B400"/>
    </g>
  </g>

  <g>
    <rect x="338" y="88" width="110" height="104" fill="url(#moduleRight)" stroke="#FFFFFF" stroke-opacity="0.14"/>
    <path d="M338 176H386" stroke="#FFFFFF" stroke-opacity="0.12"/>
    <g transform="translate(393 140)">
      <animateTransform attributeName="transform" additive="sum" type="translate" values="0 0; 0 4; 0 0" dur="6.8s" repeatCount="indefinite"/>
      <use href="#hex" fill="#E8B400"/>
      <use href="#hex" transform="translate(-34 -18)" fill="#E9EEFF" fill-opacity="0.88"/>
      <use href="#hex" transform="translate(34 -18)" fill="#E9EEFF" fill-opacity="0.88"/>
      <use href="#hex" transform="translate(-34 18)" fill="#FFFFFF"/>
      <use href="#hex" transform="translate(34 18)" fill="#FFFFFF"/>
    </g>
  </g>

  <path d="M170 114C214 82 306 82 350 114" stroke="#FFFFFF" stroke-opacity="0.22" stroke-width="2" stroke-linecap="round" stroke-dasharray="5 11">
    <animate attributeName="stroke-dashoffset" values="0;-64" dur="7s" repeatCount="indefinite"/>
  </path>
  <path d="M170 166C214 198 306 198 350 166" stroke="#E8B400" stroke-opacity="0.62" stroke-width="2" stroke-linecap="round" stroke-dasharray="5 11">
    <animate attributeName="stroke-dashoffset" values="64;0" dur="7.4s" repeatCount="indefinite"/>
  </path>

  <g>
    <path d="M0 -7L6.2 -3.5V3.5L0 7L-6.2 3.5V-3.5Z" fill="#FFFFFF"/>
    <animateMotion dur="6.6s" repeatCount="indefinite" rotate="auto">
      <mpath href="#upperFlow"/>
    </animateMotion>
  </g>

  <g>
    <circle r="10" fill="#E8B400" fill-opacity="0.12"/>
    <path d="M0 -7L6.2 -3.5V3.5L0 7L-6.2 3.5V-3.5Z" fill="#E8B400"/>
    <animateMotion dur="7.2s" begin="-3.6s" repeatCount="indefinite" rotate="auto">
      <mpath href="#lowerFlow"/>
    </animateMotion>
  </g>

  <g opacity="0.84">
    <circle cx="238" cy="140" r="2.5" fill="#FFFFFF">
      <animate attributeName="opacity" values="0.25;1;0.25" dur="2.3s" repeatCount="indefinite"/>
    </circle>
    <circle cx="260" cy="140" r="2.5" fill="#E8B400">
      <animate attributeName="opacity" values="1;0.45;1" dur="2.3s" repeatCount="indefinite"/>
    </circle>
    <circle cx="282" cy="140" r="2.5" fill="#FFFFFF">
      <animate attributeName="opacity" values="0.25;1;0.25" dur="2.3s" begin="-1.15s" repeatCount="indefinite"/>
    </circle>
  </g>
</svg>
