<svg width="520" height="280" viewBox="0 0 520 280" fill="none" xmlns="http://www.w3.org/2000/svg">
  <defs>
    <linearGradient id="field" x1="70" y1="30" x2="445" y2="246" gradientUnits="userSpaceOnUse">
      <stop stop-color="#FFFFFF" stop-opacity="0.12"/>
      <stop offset="1" stop-color="#FFFFFF" stop-opacity="0.02"/>
    </linearGradient>
    <linearGradient id="panelFill" x1="42" y1="68" x2="190" y2="212" gradientUnits="userSpaceOnUse">
      <stop stop-color="#FFFFFF" stop-opacity="0.12"/>
      <stop offset="1" stop-color="#FFFFFF" stop-opacity="0.04"/>
    </linearGradient>
    <linearGradient id="panelFillRight" x1="326" y1="68" x2="474" y2="212" gradientUnits="userSpaceOnUse">
      <stop stop-color="#FFFFFF" stop-opacity="0.12"/>
      <stop offset="1" stop-color="#FFFFFF" stop-opacity="0.04"/>
    </linearGradient>
    <radialGradient id="glowGold" cx="0" cy="0" r="1" gradientUnits="userSpaceOnUse" gradientTransform="translate(260 142) rotate(90) scale(88 128)">
      <stop stop-color="#FFD25D" stop-opacity="0.34"/>
      <stop offset="1" stop-color="#FFD25D" stop-opacity="0"/>
    </radialGradient>
    <path id="hex" d="M0 -11L9.5 -5.5V5.5L0 11L-9.5 5.5V-5.5Z"/>
    <path id="trackTop" d="M154 112C214 60 306 60 366 112"/>
    <path id="trackBottom" d="M154 174C214 226 306 226 366 174"/>
  </defs>

  <rect x="21" y="38" width="478" height="204" rx="40" fill="url(#field)" stroke="#FFFFFF" stroke-opacity="0.12"/>
  <ellipse cx="260" cy="150" rx="154" ry="94" fill="url(#glowGold)"/>

  <path d="M58 56H144" stroke="#FFFFFF" stroke-opacity="0.08"/>
  <path d="M378 224H462" stroke="#FFFFFF" stroke-opacity="0.08"/>
  <path d="M260 52V80" stroke="#FFFFFF" stroke-opacity="0.08"/>

  <path d="M115 244C155 216 179 214 219 220" stroke="#FFFFFF" stroke-opacity="0.07"/>
  <path d="M303 60C338 66 359 78 390 102" stroke="#FFFFFF" stroke-opacity="0.07"/>

  <g>
    <animateTransform attributeName="transform" type="translate" values="0 0; 0 -6; 0 0" dur="6s" repeatCount="indefinite"/>
    <rect x="42" y="68" width="150" height="144" rx="32" fill="url(#panelFill)" stroke="#FFFFFF" stroke-opacity="0.16"/>
    <g transform="translate(118 140)">
      <use href="#hex" fill="#FFFFFF"/>
      <use href="#hex" transform="translate(-30 -18)" fill="#FFFFFF" fill-opacity="0.88"/>
      <use href="#hex" transform="translate(30 -18)" fill="#FFFFFF" fill-opacity="0.88"/>
      <use href="#hex" transform="translate(-30 18)" fill="#E8B400"/>
      <use href="#hex" transform="translate(30 18)" fill="#E8B400"/>
      <animateTransform attributeName="transform" additive="sum" type="rotate" values="-2 118 140; 2 118 140; -2 118 140" dur="7s" repeatCount="indefinite"/>
    </g>
  </g>

  <g>
    <animateTransform attributeName="transform" type="translate" values="0 0; 0 6; 0 0" dur="6.8s" repeatCount="indefinite"/>
    <rect x="328" y="68" width="150" height="144" rx="32" fill="url(#panelFillRight)" stroke="#FFFFFF" stroke-opacity="0.16"/>
    <g transform="translate(404 140)">
      <use href="#hex" fill="#E8B400"/>
      <use href="#hex" transform="translate(-30 -18)" fill="#FFFFFF" fill-opacity="0.88"/>
      <use href="#hex" transform="translate(30 -18)" fill="#FFFFFF" fill-opacity="0.88"/>
      <use href="#hex" transform="translate(-30 18)" fill="#FFFFFF"/>
      <use href="#hex" transform="translate(30 18)" fill="#FFFFFF"/>
      <animateTransform attributeName="transform" additive="sum" type="rotate" values="2 404 140; -2 404 140; 2 404 140" dur="7.4s" repeatCount="indefinite"/>
    </g>
  </g>

  <path d="M154 112C214 60 306 60 366 112" stroke="#FFFFFF" stroke-opacity="0.22" stroke-width="2" stroke-linecap="round" stroke-dasharray="4 10">
    <animate attributeName="stroke-dashoffset" values="0;-56" dur="7s" repeatCount="indefinite"/>
  </path>
  <path d="M154 174C214 226 306 226 366 174" stroke="#E8B400" stroke-opacity="0.56" stroke-width="2" stroke-linecap="round" stroke-dasharray="4 10">
    <animate attributeName="stroke-dashoffset" values="56;0" dur="7.4s" repeatCount="indefinite"/>
  </path>

  <g>
    <path d="M0 -8L7 -4V4L0 8L-7 4V-4Z" fill="#FFFFFF"/>
    <animateMotion dur="6.8s" repeatCount="indefinite" rotate="auto">
      <mpath href="#trackTop"/>
    </animateMotion>
  </g>

  <g>
    <circle r="10" fill="#E8B400" fill-opacity="0.12"/>
    <path d="M0 -7L6 -3.5V3.5L0 7L-6 3.5V-3.5Z" fill="#E8B400"/>
    <animateMotion dur="7.2s" begin="-3.4s" repeatCount="indefinite" rotate="auto">
      <mpath href="#trackBottom"/>
    </animateMotion>
  </g>

  <g opacity="0.8">
    <circle cx="248" cy="140" r="2.5" fill="#FFFFFF">
      <animate attributeName="opacity" values="0.3;1;0.3" dur="2.2s" repeatCount="indefinite"/>
    </circle>
    <circle cx="272" cy="146" r="2.5" fill="#E8B400">
      <animate attributeName="opacity" values="1;0.4;1" dur="2.2s" repeatCount="indefinite"/>
    </circle>
    <circle cx="292" cy="133" r="2.5" fill="#FFFFFF">
      <animate attributeName="opacity" values="0.3;1;0.3" dur="2.2s" begin="-1.1s" repeatCount="indefinite"/>
    </circle>
  </g>
</svg>
