<svg width="400" height="400" viewBox="0 0 400 400" fill="none" xmlns="http://www.w3.org/2000/svg">
<path d="M199.998 334.031L174.395 319.248L174.395 289.682L199.998 274.899L225.602 289.682L225.602 319.248L199.998 334.031Z" fill="white"/>
<path d="M199.998 125.102L174.395 110.319L174.395 80.7526L199.998 65.9696L225.602 80.7526L225.602 110.319L199.998 125.102Z" fill="white"/>
<path d="M121.162 156.625L95.5589 141.842L95.5589 112.276L121.162 97.493L146.766 112.276L146.766 141.842L121.162 156.625Z" fill="white"/>
<path d="M125.1 302.488L99.4964 287.705L99.4964 258.139L125.1 243.356L150.703 258.139L150.703 287.705L125.1 302.488Z" fill="white"/>
<path d="M93.5607 231.543L67.9573 216.76L67.9573 187.194L93.5607 172.411L119.164 187.194L119.164 216.76L93.5607 231.543Z" fill="white"/>
<path d="M278.834 156.625L304.437 141.842L304.437 112.276L278.834 97.493L253.23 112.276L253.23 141.842L278.834 156.625Z" fill="white"/>
<path d="M274.896 302.488L300.5 287.705L300.5 258.139L274.896 243.356L249.293 258.139L249.293 287.705L274.896 302.488Z" fill="white"/>
<path d="M306.435 231.543L332.039 216.76L332.039 187.194L306.435 172.411L280.832 187.194L280.832 216.76L306.435 231.543Z" fill="white"/>
</svg>
